<svg xmlns="http://www.w3.org/2000/svg" xmlns:xlink="http://www.w3.org/1999/xlink" version="1.1" width="656.3333332538605" height="590" xml:space="preserve" style=""><rect id="backgroundrect" width="100%" height="100%" x="0" y="0" fill="none" stroke="none" style="" class=""/>
<desc>Created with Fabric.js 3.1.0</desc>
<defs>
</defs>



<g class="currentLayer" style=""><title>Layer 1</title><g style="" id="logo-logo" class="">
	<g id="logo-logo" stroke-width="0">
<linearGradient id="SVGID_8131" gradientUnits="userSpaceOnUse" gradientTransform="translate(13.3333, -8.33333) translate(-186.667, -186.667) matrix(10.6764, -78.6129, 78.6129, 10.6764, 1087.7, 156.814)" x1="9.094947017729282e-13" y1="-4.547473508864641e-13" x2="1" y2="-4.547473508864641e-13" stroke-width="0">
<stop offset="0%" style="stop-color:rgb(111,161,45);stop-opacity: 1"/>
<stop offset="100%" style="stop-color:rgb(155,208,32);stop-opacity: 1"/>
</linearGradient>
<path style="stroke: none; stroke-width: 1; stroke-dasharray: none; stroke-linecap: butt; stroke-dashoffset: 0; stroke-linejoin: miter; stroke-miterlimit: 10; fill: url(#SVGID_8131); fill-rule: nonzero; opacity: 1;" paint-order="stroke" d="m542.3181962966919,211.91843700408936 c-1.3197466135025024,-70.109375 -44.736289978027344,-136.31492614746094 -106.01964569091797,-168.40797424316406 c-0.3325345814228058,-0.1766589879989624 -0.6685330271720886,-0.3533179759979248 -1.0079954862594604,-0.5299769639968872 c-0.39488479495048523,-0.20437020063400269 -0.7897695899009705,-0.40874040126800537 -1.1881183385849,-0.6061828136444092 c-2.102588415145874,-1.0703456401824951 -4.23635196685791,-2.0991244316101074 -6.383971214294434,-3.086336612701416 c-4.451114177703857,-2.015990972518921 -8.774063110351562,-3.7063748836517334 -12.90996265411377,-5.067688465118408 c6.044508934020996,12.175615310668945 10.128449440002441,25.258771896362305 12.476974487304688,38.74027633666992 c7.457780838012695,42.78265380859375 -2.590998649597168,89.5972900390625 -23.059194564819336,124.16702270507812 c-18.22705078125,30.77676773071289 -40.04616928100586,59.412845611572266 -59.36781311035156,89.57996368408203 c-18.99257469177246,29.644073486328125 -33.6933708190918,67.42865753173828 -34.801822662353516,103.33130645751953 c-21.29953384399414,-1.7212127447128296 -41.40401840209961,-8.09825611114502 -59.4855842590332,-18.094730377197266 c2.351989269256592,13.484970092773438 6.435929775238037,26.567779541015625 12.480438232421875,38.74027633666992 v0 c10.93900203704834,4.045490741729736 9.383709907531738,3.8750672340393066 21.150585174560547,6.590766429901123 c9.5049467086792,2.1891860961914062 9.619256019592285,1.656091570854187 19.262758255004883,3.2529501914978027 c9.910223007202148,1.6491637229919434 21.19215202331543,2.26920223236084 32.70269775390625,1.1295783519744873 c20.118343353271484,-1.988972544670105 40.95024871826172,-9.359116554260254 56.42349624633789,-26.100847244262695 c0.18358679115772247,-0.20437020063400269 0.3706375062465668,-0.40458372235298157 0.5611521005630493,-0.6131106019020081 c39.13862609863281,-42.473323822021484 110.42572784423828,-137.35374450683594 89.62153625488281,-259.3662414550781 c38.896156311035156,88.80058288574219 -7.0317206382751465,183.04954528808594 -33.97394943237305,227.47824096679688 c-10.852404594421387,17.897287368774414 -23.194286346435547,33.57144546508789 -33.911598205566406,48.12364196777344 c1.9120738506317139,-0.5857458114624023 3.820683717727661,-1.2296851873397827 5.718902111053467,-1.8982182741165161 c16.103679656982422,-6.342058181762695 30.749055862426758,-14.31284236907959 43.84953308105469,-23.78730583190918 c19.69228172302246,-14.730936050415039 36.987545013427734,-33.83123779296875 50.188472747802734,-55.609134674072266 c16.637121200561523,-27.440685272216797 26.772497177124023,-59.12845993041992 26.983797073364258,-91.70992279052734 c0.5161213874816895,-6.235023498535156 0.7343471646308899,-12.334955215454102 0.7204915881156921,-18.317113876342773 c0.024247312918305397,-2.629101514816284 0.013855607248842716,-5.272058963775635 -0.031175117939710617,-7.939263343811035 " stroke-linecap="round" stroke-width="0" id="svg_2"/>
</g>
	<g id="logo-logo" stroke-width="0">
<linearGradient id="SVGID_8132" gradientUnits="userSpaceOnUse" gradientTransform="translate(13.3333, -8.33333) translate(-186.667, -186.667) matrix(44.3341, -154.571, 154.571, 44.3341, 1232.85, 277.78)" x1="0" y1="4.547473508864641e-13" x2="1" y2="4.547473508864641e-13" stroke-width="0">
<stop offset="0%" style="stop-color:rgb(127,203,44);stop-opacity: 1"/>
<stop offset="100%" style="stop-color:rgb(42,148,63);stop-opacity: 1"/>
</linearGradient>
<path style="stroke: none; stroke-width: 1; stroke-dasharray: none; stroke-linecap: butt; stroke-dashoffset: 0; stroke-linejoin: miter; stroke-miterlimit: 10; fill: url(#SVGID_8132); fill-rule: nonzero; opacity: 1;" paint-order="stroke" d="m542.6792802810669,212.23472118377686 c-0.1385560780763626,-7.100998878479004 -0.7135637402534485,-14.163894653320312 -1.683456301689148,-21.157512664794922 c-0.048494625836610794,5.299769878387451 -0.2736482620239258,10.67920970916748 -0.7308832406997681,16.16949462890625 c-0.2147619128227234,33.977413177490234 -10.786590576171875,67.02650451660156 -28.13727569580078,95.64179229736328 c-13.765546798706055,22.713497161865234 -31.809011459350586,42.63093185424805 -52.34648513793945,57.99368667602539 c-4.90834903717041,3.5560414791107178 -10.041851043701172,6.898014068603516 -15.369332313537598,10.041504859924316 c-9.605400085449219,14.808180809020996 -19.976322174072266,28.10471534729004 -29.16259002685547,40.571990966796875 c1.9120738506317139,-0.5857458114624023 3.820683717727661,-1.2296851873397827 5.718902111053467,-1.8982182741165161 c16.103679656982422,-6.342058181762695 30.749055862426758,-14.31284236907959 43.84953308105469,-23.78730583190918 c19.69228172302246,-14.730936050415039 36.987545013427734,-33.83123779296875 50.188472747802734,-55.609134674072266 c16.637121200561523,-27.440685272216797 26.772497177124023,-59.12845993041992 26.983797073364258,-91.70992279052734 c0.5161213874816895,-6.235023498535156 0.7343471646308899,-12.334955215454102 0.7204915881156921,-18.317113876342773 c0.024247312918305397,-2.629101514816284 0.013855607248842716,-5.272058963775635 -0.031175117939710617,-7.939263343811035 " stroke-linecap="round" stroke-width="0" id="svg_3"/>
</g>
	<g id="logo-logo" stroke-width="0">
<linearGradient id="SVGID_8133" gradientUnits="userSpaceOnUse" gradientTransform="translate(13.3333, -8.33333) translate(-186.667, -186.667) matrix(34.3508, 107.846, -107.846, 34.3508, 1053.33, -165.456)" x1="0" y1="0" x2="1" y2="0" stroke-width="0">
<stop offset="0%" style="stop-color:rgb(127,203,44);stop-opacity: 1"/>
<stop offset="100%" style="stop-color:rgb(42,148,63);stop-opacity: 1"/>
</linearGradient>
<path style="stroke: none; stroke-width: 1; stroke-dasharray: none; stroke-linecap: butt; stroke-dashoffset: 0; stroke-linejoin: miter; stroke-miterlimit: 10; fill: url(#SVGID_8133); fill-rule: nonzero; opacity: 1;" paint-order="stroke" d="m430.90337085723877,203.00507640838623 c25.283018112182617,-31.22014617919922 42.030982971191406,-76.07074737548828 40.88443374633789,-119.48383331298828 c-0.1489477902650833,-5.815891742706299 -0.6304301619529724,-11.607534408569336 -1.4479109048843384,-17.340293884277344 c-10.530261993408203,-8.777527809143066 -21.947282791137695,-16.46046257019043 -34.067474365234375,-22.80632781982422 c-0.3325345814228058,-0.1766589879989624 -0.6685330271720886,-0.3533179759979248 -1.0079954862594604,-0.5299769639968872 c-0.39488479495048523,-0.20437020063400269 -0.7897695899009705,-0.40874040126800537 -1.1881183385849,-0.6061828136444092 c-2.102588415145874,-1.0703456401824951 -4.23635196685791,-2.0991244316101074 -6.383971214294434,-3.086336612701416 c-4.451114177703857,-2.015990972518921 -8.774063110351562,-3.7063748836517334 -12.90996265411377,-5.067688465118408 c6.044508934020996,12.175615310668945 10.128449440002441,25.258771896362305 12.476974487304688,38.74027633666992 c7.457780838012695,42.78265380859375 -2.590998649597168,89.5972900390625 -23.059194564819336,124.16702270507812 c-18.22705078125,30.77676773071289 -40.04616928100586,59.412845611572266 -59.36781311035156,89.57996368408203 c-15.310446739196777,23.893997192382812 -27.825525283813477,53.07771682739258 -32.68537902832031,82.30162048339844 c8.150561332702637,-31.48478889465332 26.342975616455078,-62.145172119140625 46.9843635559082,-85.88329315185547 c23.509502410888672,-27.032291412353516 49.263614654541016,-52.18368148803711 71.77204895019531,-79.9849624633789 " stroke-linecap="round" stroke-width="0" id="svg_4"/>
</g>
	<g id="logo-logo" stroke-width="0">
<path style="stroke: none; stroke-width: 1; stroke-dasharray: none; stroke-linecap: butt; stroke-dashoffset: 0; stroke-linejoin: miter; stroke-miterlimit: 10; fill: rgb(86,100,41); fill-rule: nonzero; opacity: 1;" paint-order="stroke" d="m507.92033863067627,298.6919050216675 c-15.300053596496582,22.809101104736328 -31.268640518188477,40.07422637939453 -53.094688415527344,55.19797134399414 c-1.1257680654525757,1.9266221523284912 -4.520391941070557,7.735585689544678 -5.597665309906006,9.508064270019531 c-1.5622198581695557,2.5774893760681152 -3.1625423431396484,5.107869625091553 -4.773256778717041,7.5959906578063965 c0.006927803624421358,-0.013509217649698257 0.017319509759545326,-0.0284039955586195 0.024247312918305397,-0.04433794692158699 c5.327481269836426,-3.143490791320801 10.460984230041504,-6.4854631423950195 15.369332313537598,-10.041504859924316 c20.537473678588867,-15.362751960754395 38.580936431884766,-35.28018569946289 52.34648513793945,-57.99368667602539 c11.545186042785645,-19.05146026611328 20.07331085205078,-40.07041549682617 24.562528610229492,-62.01423645019531 c-5.964838981628418,21.091697692871094 -16.68907928466797,39.67899703979492 -28.83698272705078,57.7917366027832 " stroke-linecap="round" stroke-width="0" id="svg_5"/>
</g>
	<g id="logo-logo" stroke-width="0">
<path style="stroke: none; stroke-width: 1; stroke-dasharray: none; stroke-linecap: butt; stroke-dashoffset: 0; stroke-linejoin: miter; stroke-miterlimit: 10; fill: rgb(86,100,41); fill-rule: nonzero; opacity: 1;" paint-order="stroke" d="m462.4560441970825,59.75129222869873 c2.719162940979004,2.04023814201355 5.386367321014404,4.1462907791137695 7.998149394989014,6.321620941162109 c0.8174808025360107,5.732757568359375 1.298963189125061,11.524401664733887 1.4479109048843384,17.340293884277344 c1.146551489830017,43.413082122802734 -15.601414680480957,88.26367950439453 -40.88443374633789,119.48383331298828 c-22.50843620300293,27.80127716064453 -48.26254653930664,52.952667236328125 -71.77204895019531,79.9849624633789 c-3.4500463008880615,3.966167688369751 -6.82735013961792,8.133241653442383 -10.104202270507812,12.45965576171875 c4.0908684730529785,-4.994946479797363 8.334147453308105,-9.761275291442871 12.657097816467285,-14.247028350830078 c24.863887786865234,-25.792213439941406 51.87192916870117,-49.599613189697266 75.77978515625,-76.20584106445312 c26.848703384399414,-29.886545181274414 45.86552429199219,-73.82267761230469 46.94626235961914,-117.23576354980469 c0.07274194061756134,-2.90274977684021 0.0588863343000412,-5.80549955368042 -0.027711214497685432,-8.6943941116333 c-6.875845432281494,-6.934731483459473 -14.247028350830078,-13.360269546508789 -22.040807723999023,-19.20733642578125 " stroke-linecap="round" stroke-width="0" id="svg_6"/>
</g>
	<g id="logo-logo" stroke-width="0">
<linearGradient id="SVGID_8134" gradientUnits="userSpaceOnUse" gradientTransform="translate(13.3333, -8.33333) translate(-186.667, -186.667) matrix(-54.3521, 109.998, -109.998, -54.3521, 887.077, -164.312)" x1="-4.547473508864641e-13" y1="4.547473508864641e-13" x2="1" y2="4.547473508864641e-13" stroke-width="0">
<stop offset="0%" style="stop-color:rgb(31,101,50);stop-opacity: 1"/>
<stop offset="100%" style="stop-color:rgb(45,150,63);stop-opacity: 1"/>
</linearGradient>
<path style="stroke: none; stroke-width: 1; stroke-dasharray: none; stroke-linecap: butt; stroke-dashoffset: 0; stroke-linejoin: miter; stroke-miterlimit: 10; fill: url(#SVGID_8134); fill-rule: nonzero; opacity: 1;" paint-order="stroke" d="m414.2785539627075,34.15394115447998 v0 c-6.816958904266357,-2.500936985015869 -14.028802871704102,-4.949915885925293 -21.150585174560547,-6.591805458068848 c-9.501482963562012,-2.1891860961914062 -9.619256019592285,-1.6488174200057983 -19.255830764770508,-3.2526040077209473 c-9.913687705993652,-1.6488174200057983 -21.19215202331543,-2.2653918266296387 -32.70616149902344,-1.1257680654525757 c-20.12180519104004,1.9882795810699463 -40.953712463378906,9.35946273803711 -56.42003631591797,26.100500106811523 c-0.1870507150888443,0.20090630650520325 -0.3741014301776886,0.40527650713920593 -0.5646160244941711,0.609646737575531 c-39.13862609863281,42.474365234375 -106.27909088134766,135.38661193847656 -85.47247314453125,257.40252685546875 c-38.891998291015625,-88.80058288574219 2.8805809020996094,-181.08587646484375 29.82142448425293,-225.51385498046875 c10.855868339538574,-17.89451789855957 23.194286346435547,-33.575599670410156 33.91506576538086,-48.123985290527344 c-1.9155378341674805,0.5923272371292114 -3.820683717727661,1.2296851873397827 -5.718902111053467,1.9016820192337036 c-16.103679656982422,6.342404365539551 -30.752519607543945,14.31284236907959 -43.84953308105469,23.783151626586914 c-19.690204620361328,14.731974601745605 -36.99066162109375,33.83192825317383 -50.192626953125,55.612945556640625 c-16.635042190551758,27.434101104736328 -26.769378662109375,59.12880325317383 -26.98067855834961,91.70680236816406 c-0.5126574635505676,6.235023498535156 -0.7360791563987732,12.338418006896973 -0.718413233757019,18.32057762145996 c-0.02563287504017353,2.629101514816284 -0.01766589842736721,5.272058963775635 0.033946238458156586,7.9357991218566895 c1.3204394578933716,70.109375 44.735599517822266,136.31838989257812 106.01237487792969,168.40797424316406 c0.33946239948272705,0.17596621811389923 0.6754608750343323,0.3533179759979248 1.0114593505859375,0.533440887928009 c0.39834871888160706,0.2015990912914276 0.7897695899009705,0.4083940386772156 1.1881183385849,0.6099931597709656 c2.1095163822174072,1.0661890506744385 4.23635196685791,2.094621419906616 6.387435436248779,3.082526445388794 c4.444186210632324,2.0201475620269775 8.767135620117188,3.706028699874878 12.906497955322266,5.064570903778076 c-6.044508934020996,-12.172496795654297 -10.128449440002441,-25.25531005859375 -12.476974487304688,-38.74027633666992 c-7.454317092895508,-42.781959533691406 2.590998649597168,-89.5976333618164 23.059194564819336,-124.16390228271484 c18.22705078125,-30.7836971282959 40.04616928100586,-59.41630935668945 59.37127685546875,-89.58342742919922 c18.98910903930664,-29.644073486328125 33.689910888671875,-67.42831420898438 34.801822662353516,-103.33512115478516 c21.292604446411133,1.7284870147705078 41.40055465698242,8.10552978515625 59.48212432861328,18.098886489868164 c-2.3485255241394043,-13.481505393981934 -6.432465553283691,-26.564664840698242 -12.483902931213379,-38.74027633666992 v0 " stroke-linecap="round" stroke-width="0" id="svg_7"/>
</g>
	<g id="logo-logo" stroke-width="0">
<linearGradient id="SVGID_8135" gradientUnits="userSpaceOnUse" gradientTransform="translate(13.3333, -8.33333) translate(-186.667, -186.667) matrix(-27.1613, 77.4896, -77.4896, -27.1613, 729.107, -287.629)" x1="-4.547473508864641e-13" y1="0" x2="1" y2="0" stroke-width="0">
<stop offset="0%" style="stop-color:rgb(111,161,45);stop-opacity: 1"/>
<stop offset="100%" style="stop-color:rgb(155,208,32);stop-opacity: 1"/>
</linearGradient>
<path style="stroke: none; stroke-width: 1; stroke-dasharray: none; stroke-linecap: butt; stroke-dashoffset: 0; stroke-linejoin: miter; stroke-miterlimit: 10; fill: url(#SVGID_8135); fill-rule: nonzero; opacity: 1;" paint-order="stroke" d="m134.65813159942627,232.58893871307373 c0.1323210448026657,7.104462623596191 0.7049040794372559,14.163894653320312 1.6761821508407593,21.157512664794922 c0.05715438351035118,-5.303234100341797 0.2802296578884125,-10.67920970916748 0.7336544394493103,-16.16949462890625 c0.2189186066389084,-33.97394943237305 10.79074764251709,-67.02650451660156 28.134504318237305,-95.64179229736328 c13.771780967712402,-22.712804794311523 31.81524658203125,-42.63024139404297 52.34994888305664,-57.992645263671875 c4.911812782287598,-3.5539634227752686 10.038387298583984,-6.89316463470459 15.36586856842041,-10.038387298583984 c9.608863830566406,-14.808180809020996 19.979785919189453,-28.10610008239746 29.166051864624023,-40.57614517211914 c-1.9155378341674805,0.5923272371292114 -3.820683717727661,1.2296851873397827 -5.718902111053467,1.9016820192337036 c-16.103679656982422,6.342404365539551 -30.752519607543945,14.31284236907959 -43.84953308105469,23.783151626586914 c-19.690204620361328,14.731974601745605 -36.99066162109375,33.83192825317383 -50.192626953125,55.612945556640625 c-16.635042190551758,27.434101104736328 -26.769378662109375,59.12880325317383 -26.98067855834961,91.70680236816406 c-0.5126574635505676,6.235023498535156 -0.7360791563987732,12.338418006896973 -0.718413233757019,18.32057762145996 c-0.02563287504017353,2.629101514816284 -0.01766589842736721,5.272058963775635 0.033946238458156586,7.9357991218566895 " stroke-linecap="round" stroke-width="0" id="svg_8"/>
</g>
	<g id="logo-logo" stroke-width="0">
<linearGradient id="SVGID_8136" gradientUnits="userSpaceOnUse" gradientTransform="translate(13.3333, -8.33333) translate(-186.667, -186.667) matrix(-0.79888, -113.438, 113.438, -0.79888, 879.227, 142.888)" x1="-4.547473508864641e-13" y1="4.547473508864641e-13" x2="1" y2="4.547473508864641e-13" stroke-width="0">
<stop offset="0%" style="stop-color:rgb(111,161,45);stop-opacity: 1"/>
<stop offset="100%" style="stop-color:rgb(155,208,32);stop-opacity: 1"/>
</linearGradient>
<path style="stroke: none; stroke-width: 1; stroke-dasharray: none; stroke-linecap: butt; stroke-dashoffset: 0; stroke-linejoin: miter; stroke-miterlimit: 10; fill: url(#SVGID_8136); fill-rule: nonzero; opacity: 1;" paint-order="stroke" d="m246.42870044708252,241.81879711151123 c-25.283018112182617,31.22361183166504 -42.032718658447266,76.0762939453125 -40.88512420654297,119.48591613769531 c0.15275807678699493,5.818316459655762 0.6304301619529724,11.605457305908203 1.4517213106155396,17.33440399169922 c10.530608177185059,8.78133773803711 21.94416618347168,16.464271545410156 34.06089401245117,22.810138702392578 c0.33946239948272705,0.17596621811389923 0.6754608750343323,0.3533179759979248 1.0114593505859375,0.533440887928009 c0.39834871888160706,0.2015990912914276 0.7897695899009705,0.4083940386772156 1.1881183385849,0.6099931597709656 c2.1095163822174072,1.0661890506744385 4.23635196685791,2.094621419906616 6.387435436248779,3.082526445388794 c4.444186210632324,2.0201475620269775 8.767135620117188,3.706028699874878 12.906497955322266,5.064570903778076 c-6.044508934020996,-12.172496795654297 -10.128449440002441,-25.25531005859375 -12.476974487304688,-38.74027633666992 c-7.454317092895508,-42.781959533691406 2.590998649597168,-89.5976333618164 23.059194564819336,-124.16390228271484 c18.22705078125,-30.7836971282959 40.04616928100586,-59.41630935668945 59.37127685546875,-89.58342742919922 c15.306982040405273,-23.893997192382812 27.822059631347656,-53.07390594482422 32.68537902832031,-82.30230712890625 c-8.157488822937012,31.486867904663086 -26.346437454223633,62.14932632446289 -46.98782730102539,85.88398742675781 c-23.506038665771484,27.032291412353516 -49.263614654541016,52.18368148803711 -71.77204895019531,79.9849624633789 " stroke-linecap="round" stroke-width="0" id="svg_9"/>
</g>
	<g id="logo-logo" stroke-width="0">
<path style="stroke: none; stroke-width: 1; stroke-dasharray: none; stroke-linecap: butt; stroke-dashoffset: 0; stroke-linejoin: miter; stroke-miterlimit: 10; fill: rgb(37,93,49); fill-rule: nonzero; opacity: 1;" paint-order="stroke" d="m412.23491382598877,64.85138988494873 c5.17853307723999,2.1545469760894775 10.228902816772461,4.589670181274414 15.13032341003418,7.294977188110352 c-2.3485255241394043,-13.481505393981934 -6.432465553283691,-26.564664840698242 -12.483902931213379,-38.74027633666992 c-4.27099084854126,-1.5656836032867432 -8.704785346984863,-3.117511749267578 -13.162827491760254,-4.458041667938232 c4.804431915283203,10.772734642028809 8.157488822937012,22.175899505615234 10.194263458251953,33.88042449951172 c0.11430876702070236,0.6719970107078552 0.21822582185268402,1.3474578857421875 0.3221428692340851,2.022918701171875 " stroke-linecap="round" stroke-width="0" id="svg_10"/>
</g>
	<g id="logo-logo" stroke-width="0">
<path style="stroke: none; stroke-width: 1; stroke-dasharray: none; stroke-linecap: butt; stroke-dashoffset: 0; stroke-linejoin: miter; stroke-miterlimit: 10; fill: rgb(86,100,41); fill-rule: nonzero; opacity: 1;" paint-order="stroke" d="m249.9663896560669,372.69025707244873 c2.351989269256592,13.484970092773438 6.435929775238037,26.567779541015625 12.480438232421875,38.74027633666992 c8.805238723754883,3.2595314979553223 9.518802642822266,3.7884695529937744 15.594486236572266,5.282450199127197 c-5.43486213684082,-11.403858184814453 -9.179340362548828,-23.576356887817383 -11.42048454284668,-36.0976676940918 c-5.711974143981934,-2.3069586753845215 -11.27500057220459,-4.953725814819336 -16.65443992614746,-7.925061225891113 " stroke-linecap="round" stroke-width="0" id="svg_11"/>
</g>
	<g id="logo-logo" stroke-width="0">
<path style="stroke: none; stroke-width: 1; stroke-dasharray: none; stroke-linecap: butt; stroke-dashoffset: 0; stroke-linejoin: miter; stroke-miterlimit: 10; fill: rgb(37,93,49); fill-rule: nonzero; opacity: 1;" paint-order="stroke" d="m169.38087940216064,146.17905712127686 c15.299361228942871,-22.80979347229004 31.268640518188477,-40.073883056640625 53.09260940551758,-55.1972770690918 c1.1326959133148193,-1.9293934106826782 4.523856163024902,-7.731429100036621 5.597665309906006,-9.5049467086792 c1.5622198581695557,-2.584070920944214 3.1625423431396484,-5.109255313873291 4.7767205238342285,-7.599801063537598 c-0.01039170566946268,0.017319509759545326 -0.02078341133892536,0.031175117939710617 -0.031175117939710617,0.048494625836610794 c-5.32401704788208,3.141758918762207 -10.454055786132812,6.484424114227295 -15.36586856842041,10.034923553466797 c-20.535741806030273,15.36586856842041 -38.57920837402344,35.28330612182617 -52.34960174560547,57.99957275390625 c-11.545878410339355,19.047996520996094 -20.070194244384766,40.066951751708984 -24.557331085205078,62.010772705078125 c5.960336208343506,-21.091697692871094 16.686307907104492,-39.67899703979492 28.83698272705078,-57.7917366027832 " stroke-linecap="round" stroke-width="0" id="svg_12"/>
</g>
	<g id="logo-logo" stroke-width="0">
<path style="stroke: none; stroke-width: 1; stroke-dasharray: none; stroke-linecap: butt; stroke-dashoffset: 0; stroke-linejoin: miter; stroke-miterlimit: 10; fill: rgb(32,72,38); fill-rule: nonzero; opacity: 1;" paint-order="stroke" d="m214.84108448028564,385.11933422088623 c-2.714313507080078,-2.0364279747009277 -5.381171703338623,-4.148368835449219 -7.992607116699219,-6.324391841888428 c-0.8185200095176697,-5.728947162628174 -1.298963189125061,-11.524055480957031 -1.4503356218338013,-17.338214874267578 c-1.14897620677948,-43.41100311279297 15.601760864257812,-88.26576232910156 40.88478088378906,-119.48591613769531 c22.50843620300293,-27.80127716064453 48.26600646972656,-52.952667236328125 71.7755126953125,-79.9849624633789 c3.446582317352295,-3.9696316719055176 6.82735013961792,-8.133241653442383 10.104202270507812,-12.456191062927246 c-4.101259708404541,4.994946479797363 -8.33761215209961,9.761275291442871 -12.660561561584473,14.24356460571289 c-24.860422134399414,25.795677185058594 -51.87192916870117,49.59614562988281 -75.77978515625,76.20584106445312 c-26.845239639282227,29.8900089263916 -45.868988037109375,73.82267761230469 -46.94452667236328,117.2381820678711 c-0.07447389513254166,2.9024033546447754 -0.06373579800128937,5.802035808563232 0.02563287504017353,8.697857856750488 c6.879309177398682,6.929189205169678 14.248067855834961,13.357498168945312 22.037689208984375,19.204219818115234 " stroke-linecap="round" stroke-width="0" id="svg_13"/>
</g>
</g><g id="background-logo" class="" opacity="0">
<rect style="stroke: none; stroke-width: 1px; stroke-dasharray: none; stroke-linecap: butt; stroke-dashoffset: 0px; stroke-linejoin: miter; stroke-miterlimit: 10; fill: rgb(255, 255, 255); fill-rule: nonzero;" paint-order="stroke" x="-579.7548532485962" y="-261.3389129638672" rx="0" ry="0" width="1024" height="1024" transform="matrix(0.637044, 0, 0, 0.570102, 370.996, 153.082)" stroke-width="0" id="svg_1" opacity="0"/>
</g><g id="svg_14" class="">
<linearGradient id="SVGID_8137" gradientUnits="userSpaceOnUse" gradientTransform="translate(-180, -193.333) translate(-21.6667, 1.66667) translate(21.6667, -46.6667) matrix(1.5745, 0, 0, 1.5745, 514.731, 658.488)" x1="0" y1="0" x2="0" y2="93" stroke-width="0">
<stop offset="0%" style="stop-color:rgb(91,36,122);stop-opacity: 1"/>
<stop offset="100%" style="stop-color:rgb(27,206,223);stop-opacity: 1"/>
</linearGradient>
<filter id="SVGID_8138" y="-20%" height="140%" x="-20%" width="140%">
	<feGaussianBlur in="SourceAlpha" stdDeviation="0"/>
	<feOffset dx="0" dy="0" result="oBlur"/>
	<feFlood flood-color="rgb(0,0,0)" flood-opacity="1"/>
	<feComposite in2="oBlur" operator="in"/>
	<feMerge>
		<feMergeNode/>
		<feMergeNode in="SourceGraphic"/>
	</feMerge>
</filter>
<path style="stroke: none; stroke-width: 1; stroke-dasharray: none; stroke-linecap: butt; stroke-dashoffset: 0; stroke-linejoin: miter; stroke-miterlimit: 10; fill: url(#SVGID_8137); fill-rule: nonzero; opacity: 1;filter: url(#SVGID_8138);" paint-order="stroke" d="M69.88444519042969,474.0179901123047 L41.85833740234375,474.0179901123047 L41.85833740234375,464.6811981201172 L109.420166015625,464.6811981201172 L109.420166015625,474.0179901123047 L81.39404296875,474.0179901123047 L81.39404296875,553.7349700927734 L69.88444519042969,553.7349700927734 L69.88444519042969,474.0179901123047 zM134.6436767578125,553.7349700927734 L123.11831665039062,553.7349700927734 L123.11831665039062,488.34593200683594 L134.6436767578125,488.34593200683594 L134.6436767578125,553.7349700927734 zM134.6436767578125,475.57676696777344 L123.11831665039062,475.57676696777344 L123.11831665039062,464.6811981201172 L134.6436767578125,464.6811981201172 L134.6436767578125,475.57676696777344 zM151.4593505859375,519.7887420654297 L151.4593505859375,519.7887420654297 Q151.4593505859375,488.34593200683594 186.33453369140625,488.34593200683594 L186.33453369140625,488.34593200683594 Q195.67132568359375,488.34593200683594 203.76425170898438,490.21958923339844 L203.76425170898438,490.21958923339844 L203.76425170898438,499.55638122558594 Q195.67132568359375,497.68272399902344 185.70474243164062,497.68272399902344 L185.70474243164062,497.68272399902344 Q162.96893310546875,497.68272399902344 162.96893310546875,519.7887420654297 L162.96893310546875,519.7887420654297 Q162.96893310546875,544.3981781005859 185.70474243164062,544.3981781005859 L185.70474243164062,544.3981781005859 Q195.67132568359375,544.3981781005859 203.76425170898438,542.5245208740234 L203.76425170898438,542.5245208740234 L203.76425170898438,551.8613128662109 Q195.67132568359375,553.7349700927734 186.33453369140625,553.7349700927734 L186.33453369140625,553.7349700927734 Q151.4593505859375,553.7349700927734 151.4593505859375,519.7887420654297 zM229.91671752929688,553.7349700927734 L218.391357421875,553.7349700927734 L218.391357421875,464.6811981201172 L229.91671752929688,464.6811981201172 L229.91671752929688,493.4473114013672 Q239.44244384765625,488.34593200683594 251.89675903320312,488.34593200683594 L251.89675903320312,488.34593200683594 Q276.3172607421875,488.34593200683594 276.3172607421875,507.22422790527344 L276.3172607421875,507.22422790527344 Q276.3172607421875,520.9223480224609 257.6279296875,526.1497039794922 L257.6279296875,526.1497039794922 L278.55303955078125,553.7349700927734 L263.9889221191406,553.7349700927734 L243.18975830078125,526.0237274169922 L243.18975830078125,520.8594207763672 Q264.79193115234375,518.9227752685547 264.79193115234375,507.16123962402344 L264.79193115234375,507.16123962402344 Q264.79193115234375,497.68272399902344 251.09375,497.68272399902344 L251.09375,497.68272399902344 Q240.32415771484375,497.68272399902344 229.91671752929688,503.53990173339844 L229.91671752929688,503.53990173339844 L229.91671752929688,553.7349700927734 zM288.83453369140625,520.2925872802734 L288.83453369140625,520.2925872802734 Q288.83453369140625,488.34593200683594 318.9075012207031,488.34593200683594 L318.9075012207031,488.34593200683594 Q346.80767822265625,488.34593200683594 346.80767822265625,515.9311981201172 L346.80767822265625,515.9311981201172 Q346.80767822265625,519.8517303466797 346.2408447265625,524.3390350341797 L346.2408447265625,524.3390350341797 L300.3441162109375,524.3390350341797 Q300.3441162109375,544.3981781005859 323.7569885253906,544.3981781005859 L323.7569885253906,544.3981781005859 Q334.9044189453125,544.3981781005859 343.564208984375,541.9104461669922 L343.564208984375,541.9104461669922 L343.564208984375,551.2472381591797 Q334.9044189453125,553.7349700927734 322.5130920410156,553.7349700927734 L322.5130920410156,553.7349700927734 Q288.83453369140625,553.7349700927734 288.83453369140625,520.2925872802734 zM300.3441162109375,514.7503509521484 L300.3441162109375,514.7503509521484 L335.72314453125,514.7503509521484 Q335.34527587890625,497.5725555419922 318.9075012207031,497.5725555419922 L318.9075012207031,497.5725555419922 Q301.4620361328125,497.5725555419922 300.3441162109375,514.7503509521484 zM362.31646728515625,536.1163177490234 L362.31646728515625,536.1163177490234 L362.31646728515625,477.7653045654297 L369.5277099609375,477.7653045654297 L372.0311279296875,488.34593200683594 L389.71282958984375,488.34593200683594 L389.71282958984375,497.68272399902344 L373.82611083984375,497.68272399902344 L373.82611083984375,535.2346038818359 Q373.82611083984375,544.3981781005859 381.745849609375,544.3981781005859 L381.745849609375,544.3981781005859 L389.71282958984375,544.3981781005859 L389.71282958984375,553.7349700927734 L378.7542724609375,553.7349700927734 Q362.31646728515625,553.7349700927734 362.31646728515625,536.1163177490234 zM416.49505615234375,553.7349700927734 L404.9697265625,553.7349700927734 L404.9697265625,464.6811981201172 L416.49505615234375,464.6811981201172 L416.49505615234375,553.7349700927734 zM432.680908203125,520.2925872802734 L432.680908203125,520.2925872802734 Q432.680908203125,488.34593200683594 462.75384521484375,488.34593200683594 L462.75384521484375,488.34593200683594 Q490.654052734375,488.34593200683594 490.654052734375,515.9311981201172 L490.654052734375,515.9311981201172 Q490.654052734375,519.8517303466797 490.08721923828125,524.3390350341797 L490.08721923828125,524.3390350341797 L444.20623779296875,524.3390350341797 Q444.20623779296875,544.3981781005859 467.619140625,544.3981781005859 L467.619140625,544.3981781005859 Q478.76654052734375,544.3981781005859 487.41058349609375,541.9104461669922 L487.41058349609375,541.9104461669922 L487.41058349609375,551.2472381591797 Q478.76654052734375,553.7349700927734 466.375244140625,553.7349700927734 L466.375244140625,553.7349700927734 Q432.680908203125,553.7349700927734 432.680908203125,520.2925872802734 zM444.20623779296875,514.7503509521484 L444.20623779296875,514.7503509521484 L479.569580078125,514.7503509521484 Q479.191650390625,497.5725555419922 462.75384521484375,497.5725555419922 L462.75384521484375,497.5725555419922 Q445.32415771484375,497.5725555419922 444.20623779296875,514.7503509521484 zM503.04541015625,507.03526306152344 L503.04541015625,507.03526306152344 Q503.04541015625,488.34593200683594 530.2527465820312,488.34593200683594 L530.2527465820312,488.34593200683594 Q541.9669799804688,488.34593200683594 553.4923706054688,491.46348571777344 L553.4923706054688,491.46348571777344 L553.4923706054688,501.43003845214844 Q541.9669799804688,497.68272399902344 530.2527465820312,497.68272399902344 L530.2527465820312,497.68272399902344 Q513.94091796875,497.68272399902344 513.94091796875,507.03526306152344 L513.94091796875,507.03526306152344 Q513.94091796875,515.7422943115234 524.222412109375,515.7422943115234 L524.222412109375,515.7422943115234 L533.5592041015625,515.7422943115234 Q555.9801025390625,515.7422943115234 555.9801025390625,535.0456390380859 L555.9801025390625,535.0456390380859 Q555.9801025390625,553.7349700927734 528.8199462890625,553.7349700927734 L528.8199462890625,553.7349700927734 Q517.0584106445312,553.7349700927734 505.5330810546875,550.6174774169922 L505.5330810546875,550.6174774169922 L505.5330810546875,540.6508636474609 Q517.0584106445312,544.3981781005859 528.8199462890625,544.3981781005859 L528.8199462890625,544.3981781005859 Q544.4547729492188,544.3981781005859 544.4547729492188,535.0456390380859 L544.4547729492188,535.0456390380859 Q544.4547729492188,526.3386688232422 533.5592041015625,526.3386688232422 L533.5592041015625,526.3386688232422 L524.222412109375,526.3386688232422 Q503.04541015625,526.3386688232422 503.04541015625,507.03526306152344 zM568.4343872070312,507.03526306152344 L568.4343872070312,507.03526306152344 Q568.4343872070312,488.34593200683594 595.6417846679688,488.34593200683594 L595.6417846679688,488.34593200683594 Q607.3560791015625,488.34593200683594 618.8814086914062,491.46348571777344 L618.8814086914062,491.46348571777344 L618.8814086914062,501.43003845214844 Q607.3560791015625,497.68272399902344 595.6417846679688,497.68272399902344 L595.6417846679688,497.68272399902344 Q579.3299560546875,497.68272399902344 579.3299560546875,507.03526306152344 L579.3299560546875,507.03526306152344 Q579.3299560546875,515.7422943115234 589.6113891601562,515.7422943115234 L589.6113891601562,515.7422943115234 L598.9481811523438,515.7422943115234 Q621.369140625,515.7422943115234 621.369140625,535.0456390380859 L621.369140625,535.0456390380859 Q621.369140625,553.7349700927734 594.208984375,553.7349700927734 L594.208984375,553.7349700927734 Q582.4474487304688,553.7349700927734 570.922119140625,550.6174774169922 L570.922119140625,550.6174774169922 L570.922119140625,540.6508636474609 Q582.4474487304688,544.3981781005859 594.208984375,544.3981781005859 L594.208984375,544.3981781005859 Q609.84375,544.3981781005859 609.84375,535.0456390380859 L609.84375,535.0456390380859 Q609.84375,526.3386688232422 598.9481811523438,526.3386688232422 L598.9481811523438,526.3386688232422 L589.6113891601562,526.3386688232422 Q568.4343872070312,526.3386688232422 568.4343872070312,507.03526306152344 z" stroke-linecap="round" stroke-width="0" id="svg_15"/>
</g></g></svg>