<?xml version="1.0" encoding="UTF-8" standalone="no" ?>
<!DOCTYPE svg PUBLIC "-//W3C//DTD SVG 1.1//EN" "http://www.w3.org/Graphics/SVG/1.1/DTD/svg11.dtd">
<svg xmlns="http://www.w3.org/2000/svg" xmlns:xlink="http://www.w3.org/1999/xlink" version="1.1" width="1024" height="1024" viewBox="0 0 1024 1024" xml:space="preserve">
<desc>Created with Fabric.js 3.1.0</desc>
<defs>
</defs>
<g transform="matrix(1 0 0 1 512 512)" id="background-logo"  >
<rect style="stroke: none; stroke-width: 1; stroke-dasharray: none; stroke-linecap: butt; stroke-dashoffset: 0; stroke-linejoin: miter; stroke-miterlimit: 10; fill: rgb(255,255,255); fill-rule: nonzero; opacity: 1;"  paint-order="stroke"  x="-512" y="-512" rx="0" ry="0" width="1024" height="1024" />
</g>
<g transform="matrix(1.5745007680491552 0 0 1.5745007680491552 511.9999043528703 417.42027128195434)" style="" id="logo-logo"  >
	<g transform="matrix(0.22 0 0 -0.22 36.71006074759161 3.6896618492172877)" id="logo-logo"  >
<linearGradient id="SVGID_8131" gradientUnits="userSpaceOnUse" gradientTransform="matrix(30.8218 226.949 226.949 -30.8218 1495.13 769.12)"  x1="9.094947017729282e-13" y1="-4.547473508864641e-13" x2="1.0000000000009095" y2="-4.547473508864641e-13">
<stop offset="0%" style="stop-color:rgb(111,161,45);stop-opacity: 1"/>
<stop offset="100%" style="stop-color:rgb(155,208,32);stop-opacity: 1"/>
</linearGradient>
<path style="stroke: none; stroke-width: 1; stroke-dasharray: none; stroke-linecap: butt; stroke-dashoffset: 0; stroke-linejoin: miter; stroke-miterlimit: 10; fill: url(#SVGID_8131); fill-rule: nonzero; opacity: 1;"  paint-order="stroke"  transform=" translate(-1530.3783749999998, -1257.1809832620102)" d="m 1951.44 1304.27 c -3.81 202.4 -129.15 393.53 -306.07 486.18 c -0.96 0.51 -1.93 1.02 -2.91 1.53 c -1.14 0.59 -2.28 1.18 -3.43 1.75 c -6.07 3.09 -12.23 6.06 -18.43 8.91 c -12.85 5.82 -25.33 10.7 -37.27 14.63 c 17.45 -35.15 29.24 -72.92 36.02 -111.84 c 21.53 -123.51 -7.48 -258.66 -66.57 -358.46 c -52.62 -88.85 -115.61 -171.52 -171.39 -258.61 c -54.83 -85.58 -97.27 -194.661 -100.47 -298.309 c -61.49 4.969 -119.53 23.379 -171.73 52.238 c 6.79 -38.93 18.58 -76.699 36.03 -111.84 v 0 c 31.58 -11.679 27.09 -11.187 61.06 -19.027 c 27.44 -6.32 27.77 -4.781 55.61 -9.391 c 28.61 -4.761 61.18 -6.551 94.41 -3.261 c 58.08 5.742 118.22 27.019 162.89 75.351 c 0.53 0.59 1.07 1.168 1.62 1.77 c 112.99 122.617 318.79 396.529 258.73 748.769 c 112.29 -256.36 -20.3 -528.449 -98.08 -656.711 c -31.33 -51.668 -66.96 -96.918 -97.9 -138.929 c 5.52 1.691 11.03 3.55 16.51 5.48 c 46.49 18.309 88.77 41.32 126.59 68.672 c 56.85 42.527 106.78 97.668 144.89 160.539 c 48.03 79.219 77.29 170.699 77.9 264.759 c 1.49 18 2.12 35.61 2.08 52.88 c 0.07 7.59 0.04 15.22 -0.09 22.92" stroke-linecap="round" />
</g>
	<g transform="matrix(0.22 0 0 -0.22 89.12006074759165 50.089661849217265)" id="logo-logo"  >
<linearGradient id="SVGID_8132" gradientUnits="userSpaceOnUse" gradientTransform="matrix(127.989 446.233 446.233 -127.989 1675.93 630.81)"  x1="0" y1="4.547473508864641e-13" x2="1" y2="4.547473508864641e-13">
<stop offset="0%" style="stop-color:rgb(127,203,44);stop-opacity: 1"/>
<stop offset="100%" style="stop-color:rgb(42,148,63);stop-opacity: 1"/>
</linearGradient>
<path style="stroke: none; stroke-width: 1; stroke-dasharray: none; stroke-linecap: butt; stroke-dashoffset: 0; stroke-linejoin: miter; stroke-miterlimit: 10; fill: url(#SVGID_8132); fill-rule: nonzero; opacity: 1;"  paint-order="stroke"  transform=" translate(-1767.5633750000002, -1047.185)" d="m 1951.44 1304.27 c -0.4 20.5 -2.06 40.89 -4.86 61.08 c -0.14 -15.3 -0.79 -30.83 -2.11 -46.68 c -0.62 -98.09 -31.14 -193.5 -81.23 -276.11 c -39.74 -65.572 -91.83 -123.072 -151.12 -167.423 c -14.17 -10.266 -28.99 -19.914 -44.37 -28.989 c -27.73 -42.75 -57.67 -81.136 -84.19 -117.128 c 5.52 1.691 11.03 3.55 16.51 5.48 c 46.49 18.309 88.77 41.32 126.59 68.672 c 56.85 42.527 106.78 97.668 144.89 160.539 c 48.03 79.219 77.29 170.699 77.9 264.759 c 1.49 18 2.12 35.61 2.08 52.88 c 0.07 7.59 0.04 15.22 -0.09 22.92" stroke-linecap="round" />
</g>
	<g transform="matrix(0.22 0 0 -0.22 33.87006074759166 -13.300338150782721)" id="logo-logo"  >
<linearGradient id="SVGID_8133" gradientUnits="userSpaceOnUse" gradientTransform="matrix(99.1678 -311.342 -311.342 -99.1678 1408.81 1622.26)"  x1="0" y1="0" x2="1" y2="0">
<stop offset="0%" style="stop-color:rgb(127,203,44);stop-opacity: 1"/>
<stop offset="100%" style="stop-color:rgb(42,148,63);stop-opacity: 1"/>
</linearGradient>
<path style="stroke: none; stroke-width: 1; stroke-dasharray: none; stroke-linecap: butt; stroke-dashoffset: 0; stroke-linejoin: miter; stroke-miterlimit: 10; fill: url(#SVGID_8133); fill-rule: nonzero; opacity: 1;"  paint-order="stroke"  transform=" translate(-1517.5449802282028, -1334.016)" d="m 1629.87 1329.61 c 72.99 90.13 121.34 219.61 118.03 344.94 c -0.43 16.79 -1.82 33.51 -4.18 50.06 c -30.4 25.34 -63.36 47.52 -98.35 65.84 c -0.96 0.51 -1.93 1.02 -2.91 1.53 c -1.14 0.59 -2.28 1.18 -3.43 1.75 c -6.07 3.09 -12.23 6.06 -18.43 8.91 c -12.85 5.82 -25.33 10.7 -37.27 14.63 c 17.45 -35.15 29.24 -72.92 36.02 -111.84 c 21.53 -123.51 -7.48 -258.66 -66.57 -358.46 c -52.62 -88.85 -115.61 -171.52 -171.39 -258.61 c -44.2 -68.98 -80.33 -153.231 -94.36 -237.598 c 23.53 90.894 76.05 179.408 135.64 247.938 c 67.87 78.04 142.22 150.65 207.2 230.91" stroke-linecap="round" />
</g>
	<g transform="matrix(0.22 0 0 -0.22 96.50006074759163 53.04966184921729)" id="logo-logo"  >
<path style="stroke: none; stroke-width: 1; stroke-dasharray: none; stroke-linecap: butt; stroke-dashoffset: 0; stroke-linejoin: miter; stroke-miterlimit: 10; fill: rgb(86,100,41); fill-rule: nonzero; opacity: 1;"  paint-order="stroke"  transform=" translate(-1800.915, -1033.805)" d="m 1850.9 1054.75 c -44.17 -65.848 -90.27 -115.691 -153.28 -159.352 c -3.25 -5.562 -13.05 -22.332 -16.16 -27.449 c -4.51 -7.441 -9.13 -14.746 -13.78 -21.929 c 0.02 0.039 0.05 0.082 0.07 0.128 c 15.38 9.075 30.2 18.723 44.37 28.989 c 59.29 44.351 111.38 101.851 151.12 167.423 c 33.33 55 57.95 115.68 70.91 179.03 c -17.22 -60.89 -48.18 -114.55 -83.25 -166.84" stroke-linecap="round" />
</g>
	<g transform="matrix(0.22 0 0 -0.22 49.66006074759163 -28.50033815078271)" id="logo-logo"  >
<path style="stroke: none; stroke-width: 1; stroke-dasharray: none; stroke-linecap: butt; stroke-dashoffset: 0; stroke-linejoin: miter; stroke-miterlimit: 10; fill: rgb(86,100,41); fill-rule: nonzero; opacity: 1;"  paint-order="stroke"  transform=" translate(-1588.987711890176, -1402.7949999999998)" d="m 1720.63 1742.86 c 7.85 -5.89 15.55 -11.97 23.09 -18.25 c 2.36 -16.55 3.75 -33.27 4.18 -50.06 c 3.31 -125.33 -45.04 -254.81 -118.03 -344.94 c -64.98 -80.26 -139.33 -152.87 -207.2 -230.91 c -9.96 -11.45 -19.71 -23.48 -29.17 -35.97 c 11.81 14.42 24.06 28.18 36.54 41.13 c 71.78 74.46 149.75 143.19 218.77 220 c 77.51 86.28 132.41 213.12 135.53 338.45 c 0.21 8.38 0.17 16.76 -0.08 25.1 c -19.85 20.02 -41.13 38.57 -63.63 55.45" stroke-linecap="round" />
</g>
	<g transform="matrix(0.22 0 0 -0.22 -36.70993925240835 -3.6903381507827078)" id="logo-logo"  >
<linearGradient id="SVGID_8134" gradientUnits="userSpaceOnUse" gradientTransform="matrix(-156.91 -317.556 -317.556 156.91 1249.68 1662.64)"  x1="-4.547473508864641e-13" y1="4.547473508864641e-13" x2="0.9999999999995453" y2="4.547473508864641e-13">
<stop offset="0%" style="stop-color:rgb(31,101,50);stop-opacity: 1"/>
<stop offset="100%" style="stop-color:rgb(45,150,63);stop-opacity: 1"/>
</linearGradient>
<path style="stroke: none; stroke-width: 1; stroke-dasharray: none; stroke-linecap: butt; stroke-dashoffset: 0; stroke-linejoin: miter; stroke-miterlimit: 10; fill: url(#SVGID_8134); fill-rule: nonzero; opacity: 1;"  paint-order="stroke"  transform=" translate(-1198.191072749167, -1290.5349426399653)" d="m 1583.34 1817.27 v 0 c -19.68 7.22 -40.5 14.29 -61.06 19.03 c -27.43 6.32 -27.77 4.76 -55.59 9.39 c -28.62 4.76 -61.18 6.54 -94.42 3.25 c -58.09 -5.74 -118.23 -27.02 -162.88 -75.35 c -0.54 -0.58 -1.08 -1.17 -1.63 -1.76 c -112.99 -122.62 -306.819 -390.85 -246.752 -743.1 c -112.278 256.36 8.316 522.78 86.092 651.04 c 31.34 51.66 66.96 96.93 97.91 138.93 c -5.53 -1.71 -11.03 -3.55 -16.51 -5.49 c -46.49 -18.31 -88.78 -41.32 -126.59 -68.66 c -56.844 -42.53 -106.789 -97.67 -144.902 -160.55 c -48.024 -79.2 -77.281 -170.7 -77.891 -264.75 c -1.48 -18 -2.125 -35.62 -2.074 -52.89 c -0.074 -7.59 -0.051 -15.22 0.098 -22.91 c 3.812 -202.4 129.148 -393.54 306.049 -486.18 c 0.98 -0.508 1.95 -1.02 2.92 -1.54 c 1.15 -0.582 2.28 -1.179 3.43 -1.761 c 6.09 -3.078 12.23 -6.047 18.44 -8.899 c 12.83 -5.832 25.31 -10.699 37.26 -14.621 c -17.45 35.141 -29.24 72.91 -36.02 111.84 c -21.52 123.508 7.48 258.661 66.57 358.451 c 52.62 88.87 115.61 171.53 171.4 258.62 c 54.82 85.58 97.26 194.66 100.47 298.32 c 61.47 -4.99 119.52 -23.4 171.72 -52.25 c -6.78 38.92 -18.57 76.69 -36.04 111.84 v 0" stroke-linecap="round" />
</g>
	<g transform="matrix(0.22 0 0 -0.22 -89.11993925240834 -50.10033815078273)" id="logo-logo"  >
<linearGradient id="SVGID_8135" gradientUnits="userSpaceOnUse" gradientTransform="matrix(-78.4124 -223.706 -223.706 78.4124 1031.86 1807.69)"  x1="-4.547473508864641e-13" y1="0" x2="0.9999999999995453" y2="0">
<stop offset="0%" style="stop-color:rgb(111,161,45);stop-opacity: 1"/>
<stop offset="100%" style="stop-color:rgb(155,208,32);stop-opacity: 1"/>
</linearGradient>
<path style="stroke: none; stroke-width: 1; stroke-dasharray: none; stroke-linecap: butt; stroke-dashoffset: 0; stroke-linejoin: miter; stroke-miterlimit: 10; fill: url(#SVGID_8135); fill-rule: nonzero; opacity: 1;"  paint-order="stroke"  transform=" translate(-961.0060727491668, -1500.5350000000003)" d="m 777.141 1243.45 c 0.382 -20.51 2.035 -40.89 4.839 -61.08 c 0.165 15.31 0.809 30.83 2.118 46.68 c 0.632 98.08 31.152 193.5 81.222 276.11 c 39.758 65.57 91.848 123.07 151.13 167.42 c 14.18 10.26 28.98 19.9 44.36 28.98 c 27.74 42.75 57.68 81.14 84.2 117.14 c -5.53 -1.71 -11.03 -3.55 -16.51 -5.49 c -46.49 -18.31 -88.78 -41.32 -126.59 -68.66 c -56.844 -42.53 -106.789 -97.67 -144.902 -160.55 c -48.024 -79.2 -77.281 -170.7 -77.891 -264.75 c -1.48 -18 -2.125 -35.62 -2.074 -52.89 c -0.074 -7.59 -0.051 -15.22 0.098 -22.91" stroke-linecap="round" />
</g>
	<g transform="matrix(0.22 0 0 -0.22 -33.869939252408365 13.28966184921731)" id="logo-logo"  >
<linearGradient id="SVGID_8136" gradientUnits="userSpaceOnUse" gradientTransform="matrix(-2.3063 327.486 327.486 2.3063 1214.11 852.959)"  x1="-4.547473508864641e-13" y1="4.547473508864641e-13" x2="0.9999999999995453" y2="4.547473508864641e-13">
<stop offset="0%" style="stop-color:rgb(111,161,45);stop-opacity: 1"/>
<stop offset="100%" style="stop-color:rgb(155,208,32);stop-opacity: 1"/>
</linearGradient>
<path style="stroke: none; stroke-width: 1; stroke-dasharray: none; stroke-linecap: butt; stroke-dashoffset: 0; stroke-linejoin: miter; stroke-miterlimit: 10; fill: url(#SVGID_8136); fill-rule: nonzero; opacity: 1;"  paint-order="stroke"  transform=" translate(-1211.0288866410583, -1213.7045)" d="m 1098.7 1218.11 c -72.99 -90.14 -121.345 -219.626 -118.032 -344.946 c 0.441 -16.797 1.82 -33.504 4.191 -50.043 c 30.401 -25.351 63.351 -47.531 98.331 -65.851 c 0.98 -0.508 1.95 -1.02 2.92 -1.54 c 1.15 -0.582 2.28 -1.179 3.43 -1.761 c 6.09 -3.078 12.23 -6.047 18.44 -8.899 c 12.83 -5.832 25.31 -10.699 37.26 -14.621 c -17.45 35.141 -29.24 72.91 -36.02 111.84 c -21.52 123.508 7.48 258.661 66.57 358.451 c 52.62 88.87 115.61 171.53 171.4 258.62 c 44.19 68.98 80.32 153.22 94.36 237.6 c -23.55 -90.9 -76.06 -179.42 -135.65 -247.94 c -67.86 -78.04 -142.22 -150.65 -207.2 -230.91" stroke-linecap="round" />
</g>
	<g transform="matrix(0.22 0 0 -0.22 48.190060747591666 -109.16033815078268)" id="logo-logo"  >
<path style="stroke: none; stroke-width: 1; stroke-dasharray: none; stroke-linecap: butt; stroke-dashoffset: 0; stroke-linejoin: miter; stroke-miterlimit: 10; fill: rgb(37,93,49); fill-rule: nonzero; opacity: 1;"  paint-order="stroke"  transform=" translate(-1582.3600000000001, -1767.7849999999999)" d="m 1575.7 1726.49 c 14.95 -6.22 29.53 -13.25 43.68 -21.06 c -6.78 38.92 -18.57 76.69 -36.04 111.84 c -12.33 4.52 -25.13 9 -38 12.87 c 13.87 -31.1 23.55 -64.02 29.43 -97.81 c 0.33 -1.94 0.63 -3.89 0.93 -5.84" stroke-linecap="round" />
</g>
	<g transform="matrix(0.22 0 0 -0.22 -47.41993925240834 109.4196618492173)" id="logo-logo"  >
<path style="stroke: none; stroke-width: 1; stroke-dasharray: none; stroke-linecap: butt; stroke-dashoffset: 0; stroke-linejoin: miter; stroke-miterlimit: 10; fill: rgb(86,100,41); fill-rule: nonzero; opacity: 1;"  paint-order="stroke"  transform=" translate(-1149.7150000000001, -778.7439999999999)" d="m 1109.19 842.289 c 6.79 -38.93 18.58 -76.699 36.03 -111.84 c 25.42 -9.41 27.48 -10.937 45.02 -15.25 c -15.69 32.922 -26.5 68.063 -32.97 104.211 c -16.49 6.66 -32.55 14.301 -48.08 22.879" stroke-linecap="round" />
</g>
	<g transform="matrix(0.22 0 0 -0.22 -96.51993925240836 -53.03033815078274)" id="logo-logo"  >
<path style="stroke: none; stroke-width: 1; stroke-dasharray: none; stroke-linecap: butt; stroke-dashoffset: 0; stroke-linejoin: miter; stroke-miterlimit: 10; fill: rgb(37,93,49); fill-rule: nonzero; opacity: 1;"  paint-order="stroke"  transform=" translate(-927.5530000000002, -1513.825)" d="m 877.566 1492.88 c 44.168 65.85 90.27 115.69 153.274 159.35 c 3.27 5.57 13.06 22.32 16.16 27.44 c 4.51 7.46 9.13 14.75 13.79 21.94 c -0.03 -0.05 -0.06 -0.09 -0.09 -0.14 c -15.37 -9.07 -30.18 -18.72 -44.36 -28.97 c -59.285 -44.36 -111.375 -101.86 -151.129 -167.44 c -33.332 -54.99 -57.941 -115.67 -70.895 -179.02 c 17.207 60.89 48.172 114.55 83.25 166.84" stroke-linecap="round" />
</g>
	<g transform="matrix(0.22 0 0 -0.22 -49.67993925240836 28.519661849217286)" id="logo-logo"  >
<path style="stroke: none; stroke-width: 1; stroke-dasharray: none; stroke-linecap: butt; stroke-dashoffset: 0; stroke-linejoin: miter; stroke-miterlimit: 10; fill: rgb(32,72,38); fill-rule: nonzero; opacity: 1;"  paint-order="stroke"  transform=" translate(-1139.4762215245619, -1144.826)" d="m 1007.82 804.762 c -7.836 5.879 -15.535 11.976 -23.074 18.258 c -2.363 16.539 -3.75 33.269 -4.187 50.054 c -3.317 125.324 45.041 254.816 118.031 344.946 c 64.98 80.26 139.34 152.87 207.21 230.91 c 9.95 11.46 19.71 23.48 29.17 35.96 c -11.84 -14.42 -24.07 -28.18 -36.55 -41.12 c -71.77 -74.47 -149.75 -143.18 -218.77 -220 c -77.5 -86.29 -132.42 -213.12 -135.525 -338.457 c -0.215 -8.379 -0.184 -16.75 0.074 -25.11 c 19.86 -20.004 41.133 -38.562 63.621 -55.441" stroke-linecap="round" />
</g>
</g>
<g transform="matrix(1.5745007680491552 0 0 1.5745007680491552 511.61369658377373 747.5414709771352)"  >
<linearGradient id="SVGID_8137" gradientUnits="userSpaceOnUse" gradientTransform="matrix(1 0 0 1 1.9799999999999898 -56.56)"  x1="0" y1="0" x2="0" y2="93">
<stop offset="0%" style="stop-color:rgb(91,36,122);stop-opacity: 1"/>
<stop offset="100%" style="stop-color:rgb(27,206,223);stop-opacity: 1"/>
</linearGradient>
<filter id="SVGID_8138" y="-20%" height="140%" x="-20%" width="140%" >
	<feGaussianBlur in="SourceAlpha" stdDeviation="0"></feGaussianBlur>
	<feOffset dx="0" dy="0" result="oBlur" ></feOffset>
	<feFlood flood-color="rgb(0,0,0)" flood-opacity="1"/>
	<feComposite in2="oBlur" operator="in" />
	<feMerge>
		<feMergeNode></feMergeNode>
		<feMergeNode in="SourceGraphic"></feMergeNode>
	</feMerge>
</filter>
<path style="stroke: none; stroke-width: 1; stroke-dasharray: none; stroke-linecap: butt; stroke-dashoffset: 0; stroke-linejoin: miter; stroke-miterlimit: 10; fill: url(#SVGID_8137); fill-rule: nonzero; opacity: 1;filter: url(#SVGID_8138);"  paint-order="stroke"  transform=" translate(-186.01, 28.28)" d="M 19.78 -50.63 L 1.98 -50.63 L 1.98 -56.56 L 44.89 -56.56 L 44.89 -50.63 L 27.09 -50.63 L 27.09 0 L 19.78 0 L 19.78 -50.63 Z M 60.91 0 L 53.59 0 L 53.59 -41.53 L 60.91 -41.53 L 60.91 0 Z M 60.91 -49.64 L 53.59 -49.64 L 53.59 -56.56 L 60.91 -56.56 L 60.91 -49.64 Z M 71.59 -21.56 L 71.59 -21.56 Q 71.59 -41.53 93.74 -41.53 L 93.74 -41.53 Q 99.67 -41.53 104.81 -40.34 L 104.81 -40.34 L 104.81 -34.41 Q 99.67 -35.6 93.34 -35.6 L 93.34 -35.6 Q 78.9 -35.6 78.9 -21.56 L 78.9 -21.56 Q 78.9 -5.93 93.34 -5.93 L 93.34 -5.93 Q 99.67 -5.93 104.81 -7.12 L 104.81 -7.12 L 104.81 -1.19 Q 99.67 0 93.74 0 L 93.74 0 Q 71.59 0 71.59 -21.56 Z M 121.42 0 L 114.1 0 L 114.1 -56.56 L 121.42 -56.56 L 121.42 -38.29 Q 127.47 -41.53 135.38 -41.53 L 135.38 -41.53 Q 150.89 -41.53 150.89 -29.54 L 150.89 -29.54 Q 150.89 -20.84 139.02 -17.52 L 139.02 -17.52 L 152.31 0 L 143.06 0 L 129.85 -17.6 L 129.85 -20.88 Q 143.57 -22.11 143.57 -29.58 L 143.57 -29.58 Q 143.57 -35.6 134.87 -35.6 L 134.87 -35.6 Q 128.03 -35.6 121.42 -31.88 L 121.42 -31.88 L 121.42 0 Z M 158.84 -21.24 L 158.84 -21.24 Q 158.84 -41.53 177.94 -41.53 L 177.94 -41.53 Q 195.66 -41.53 195.66 -24.01 L 195.66 -24.01 Q 195.66 -21.52 195.3 -18.67 L 195.3 -18.67 L 166.15 -18.67 Q 166.15 -5.93 181.02 -5.93 L 181.02 -5.93 Q 188.1 -5.93 193.6 -7.51 L 193.6 -7.51 L 193.6 -1.58 Q 188.1 0 180.23 0 L 180.23 0 Q 158.84 0 158.84 -21.24 Z M 166.15 -24.76 L 166.15 -24.76 L 188.62 -24.76 Q 188.38 -35.67 177.94 -35.67 L 177.94 -35.67 Q 166.86 -35.67 166.15 -24.76 Z M 205.51 -11.19 L 205.51 -11.19 L 205.51 -48.25 L 210.09 -48.25 L 211.68 -41.53 L 222.91 -41.53 L 222.91 -35.6 L 212.82 -35.6 L 212.82 -11.75 Q 212.82 -5.93 217.85 -5.93 L 217.85 -5.93 L 222.91 -5.93 L 222.91 0 L 215.95 0 Q 205.51 0 205.51 -11.19 Z M 239.92 0 L 232.6 0 L 232.6 -56.56 L 239.92 -56.56 L 239.92 0 Z M 250.2 -21.24 L 250.2 -21.24 Q 250.2 -41.53 269.3 -41.53 L 269.3 -41.53 Q 287.02 -41.53 287.02 -24.01 L 287.02 -24.01 Q 287.02 -21.52 286.66 -18.67 L 286.66 -18.67 L 257.52 -18.67 Q 257.52 -5.93 272.39 -5.93 L 272.39 -5.93 Q 279.47 -5.93 284.96 -7.51 L 284.96 -7.51 L 284.96 -1.58 Q 279.47 0 271.6 0 L 271.6 0 Q 250.2 0 250.2 -21.24 Z M 257.52 -24.76 L 257.52 -24.76 L 279.98 -24.76 Q 279.74 -35.67 269.3 -35.67 L 269.3 -35.67 Q 258.23 -35.67 257.52 -24.76 Z M 294.89 -29.66 L 294.89 -29.66 Q 294.89 -41.53 312.17 -41.53 L 312.17 -41.53 Q 319.61 -41.53 326.93 -39.55 L 326.93 -39.55 L 326.93 -33.22 Q 319.61 -35.6 312.17 -35.6 L 312.17 -35.6 Q 301.81 -35.6 301.81 -29.66 L 301.81 -29.66 Q 301.81 -24.13 308.34 -24.13 L 308.34 -24.13 L 314.27 -24.13 Q 328.51 -24.13 328.51 -11.87 L 328.51 -11.87 Q 328.51 0 311.26 0 L 311.26 0 Q 303.79 0 296.47 -1.98 L 296.47 -1.98 L 296.47 -8.31 Q 303.79 -5.93 311.26 -5.93 L 311.26 -5.93 Q 321.19 -5.93 321.19 -11.87 L 321.19 -11.87 Q 321.19 -17.4 314.27 -17.4 L 314.27 -17.4 L 308.34 -17.4 Q 294.89 -17.4 294.89 -29.66 Z M 336.42 -29.66 L 336.42 -29.66 Q 336.42 -41.53 353.7 -41.53 L 353.7 -41.53 Q 361.14 -41.53 368.46 -39.55 L 368.46 -39.55 L 368.46 -33.22 Q 361.14 -35.6 353.7 -35.6 L 353.7 -35.6 Q 343.34 -35.6 343.34 -29.66 L 343.34 -29.66 Q 343.34 -24.13 349.87 -24.13 L 349.87 -24.13 L 355.8 -24.13 Q 370.04 -24.13 370.04 -11.87 L 370.04 -11.87 Q 370.04 0 352.79 0 L 352.79 0 Q 345.32 0 338 -1.98 L 338 -1.98 L 338 -8.31 Q 345.32 -5.93 352.79 -5.93 L 352.79 -5.93 Q 362.72 -5.93 362.72 -11.87 L 362.72 -11.87 Q 362.72 -17.4 355.8 -17.4 L 355.8 -17.4 L 349.87 -17.4 Q 336.42 -17.4 336.42 -29.66 Z" stroke-linecap="round" />
</g>
</svg>